<mxfile host="app.diagrams.net" modified="2021-03-17T02:03:20.961Z" agent="5.0 (Macintosh; Intel Mac OS X 10_15_6) AppleWebKit/537.36 (KHTML, like Gecko) Chrome/89.0.4389.82 Safari/537.36" etag="QCrOWXBdxXKJH0ETKT2o" version="14.4.8" type="github">
  <diagram id="SSoS54ry8ZdYMhagJAIk" name="Page-1">
    <mxGraphModel dx="2160" dy="1067" grid="1" gridSize="10" guides="1" tooltips="1" connect="1" arrows="1" fold="1" page="1" pageScale="1" pageWidth="850" pageHeight="1100" math="0" shadow="0">
      <root>
        <mxCell id="0" />
        <mxCell id="1" parent="0" />
        <mxCell id="QYhbDupaITXDfX72JbQJ-1" value="&lt;h1&gt;&lt;span&gt;Healthcare HIPAA Patient Practice Automation&lt;/span&gt;&lt;/h1&gt;&lt;h1&gt;&lt;span style=&quot;font-size: 12px ; font-weight: normal&quot;&gt;A HIPAA compliant implementation of a public-facing website for the healthcare practice, integrated with a commercial form collection and appointment management services, connected to a backend system that offers patient notifications, patient consent email automation, pharmacy order automation, patient follow-up information collection and centralized automated medical reporting.&lt;/span&gt;&lt;br&gt;&lt;/h1&gt;" style="text;html=1;strokeColor=none;fillColor=none;spacing=5;spacingTop=-20;whiteSpace=wrap;overflow=hidden;rounded=0;" parent="1" vertex="1">
          <mxGeometry x="40" y="30" width="630" height="170" as="geometry" />
        </mxCell>
        <mxCell id="QYhbDupaITXDfX72JbQJ-6" value="" style="rounded=0;whiteSpace=wrap;html=1;align=left;" parent="1" vertex="1">
          <mxGeometry x="40" y="240" width="380" height="200" as="geometry" />
        </mxCell>
        <mxCell id="QYhbDupaITXDfX72JbQJ-7" value="" style="rounded=0;whiteSpace=wrap;html=1;" parent="1" vertex="1">
          <mxGeometry x="40" y="480" width="380" height="420" as="geometry" />
        </mxCell>
        <mxCell id="NJGaBBz6_rM-sWw-D0Qb-46" value="" style="edgeStyle=orthogonalEdgeStyle;rounded=0;orthogonalLoop=1;jettySize=auto;html=1;" edge="1" parent="1" source="QYhbDupaITXDfX72JbQJ-8" target="NJGaBBz6_rM-sWw-D0Qb-26">
          <mxGeometry relative="1" as="geometry">
            <Array as="points">
              <mxPoint x="235" y="920" />
              <mxPoint x="235" y="920" />
            </Array>
          </mxGeometry>
        </mxCell>
        <mxCell id="QYhbDupaITXDfX72JbQJ-8" value="" style="rounded=0;whiteSpace=wrap;html=1;" parent="1" vertex="1">
          <mxGeometry x="40" y="942" width="380" height="170" as="geometry" />
        </mxCell>
        <mxCell id="NJGaBBz6_rM-sWw-D0Qb-2" value="" style="group" vertex="1" connectable="0" parent="1">
          <mxGeometry x="520" y="270" width="160" height="70" as="geometry" />
        </mxCell>
        <mxCell id="QYhbDupaITXDfX72JbQJ-3" value="&lt;b&gt;Jotform&lt;br&gt;&lt;/b&gt;commercial form service&lt;br&gt;HIPAA compliant" style="rounded=1;whiteSpace=wrap;html=1;" parent="NJGaBBz6_rM-sWw-D0Qb-2" vertex="1">
          <mxGeometry width="140" height="60" as="geometry" />
        </mxCell>
        <mxCell id="NJGaBBz6_rM-sWw-D0Qb-1" value="" style="shape=image;html=1;verticalAlign=top;verticalLabelPosition=bottom;labelBackgroundColor=#ffffff;imageAspect=0;aspect=fixed;image=https://cdn1.iconfinder.com/data/icons/medicoicons/64/caduceus.png" vertex="1" parent="NJGaBBz6_rM-sWw-D0Qb-2">
          <mxGeometry x="130" y="40" width="30" height="30" as="geometry" />
        </mxCell>
        <mxCell id="NJGaBBz6_rM-sWw-D0Qb-5" value="" style="group" vertex="1" connectable="0" parent="1">
          <mxGeometry x="520" y="350" width="160" height="70" as="geometry" />
        </mxCell>
        <mxCell id="QYhbDupaITXDfX72JbQJ-12" value="&lt;b&gt;Cogsworth&lt;/b&gt;&lt;br&gt;commercial appointment management service&lt;br&gt;HIPAA compliant" style="rounded=1;whiteSpace=wrap;html=1;" parent="NJGaBBz6_rM-sWw-D0Qb-5" vertex="1">
          <mxGeometry width="140" height="60" as="geometry" />
        </mxCell>
        <mxCell id="NJGaBBz6_rM-sWw-D0Qb-3" value="" style="shape=image;html=1;verticalAlign=top;verticalLabelPosition=bottom;labelBackgroundColor=#ffffff;imageAspect=0;aspect=fixed;image=https://cdn1.iconfinder.com/data/icons/medicoicons/64/caduceus.png" vertex="1" parent="NJGaBBz6_rM-sWw-D0Qb-5">
          <mxGeometry x="130" y="40" width="30" height="30" as="geometry" />
        </mxCell>
        <mxCell id="NJGaBBz6_rM-sWw-D0Qb-6" value="Public Website" style="text;html=1;strokeColor=none;fillColor=none;align=center;verticalAlign=middle;whiteSpace=wrap;rounded=0;" vertex="1" parent="1">
          <mxGeometry x="50" y="250" width="40" height="20" as="geometry" />
        </mxCell>
        <mxCell id="NJGaBBz6_rM-sWw-D0Qb-7" value="Backend" style="text;html=1;strokeColor=none;fillColor=none;align=center;verticalAlign=middle;whiteSpace=wrap;rounded=0;" vertex="1" parent="1">
          <mxGeometry x="50" y="490" width="40" height="20" as="geometry" />
        </mxCell>
        <mxCell id="NJGaBBz6_rM-sWw-D0Qb-8" value="Business Console" style="text;html=1;strokeColor=none;fillColor=none;align=center;verticalAlign=middle;whiteSpace=wrap;rounded=0;" vertex="1" parent="1">
          <mxGeometry x="50" y="950" width="40" height="20" as="geometry" />
        </mxCell>
        <mxCell id="NJGaBBz6_rM-sWw-D0Qb-9" value="Amazon Lightsail" style="outlineConnect=0;fontColor=#232F3E;gradientColor=none;strokeColor=#ffffff;fillColor=#232F3E;dashed=0;verticalLabelPosition=middle;verticalAlign=bottom;align=center;html=1;whiteSpace=wrap;fontSize=10;fontStyle=1;spacing=3;shape=mxgraph.aws4.productIcon;prIcon=mxgraph.aws4.lightsail;" vertex="1" parent="1">
          <mxGeometry x="70" y="285" width="80" height="110" as="geometry" />
        </mxCell>
        <mxCell id="NJGaBBz6_rM-sWw-D0Qb-10" value="" style="dashed=0;outlineConnect=0;html=1;align=center;labelPosition=center;verticalLabelPosition=bottom;verticalAlign=top;shape=mxgraph.webicons.wordpress;fillColor=#35E2EE;gradientColor=#0E4D99" vertex="1" parent="1">
          <mxGeometry x="180" y="290" width="70" height="70" as="geometry" />
        </mxCell>
        <mxCell id="NJGaBBz6_rM-sWw-D0Qb-11" value="Wordpress" style="text;html=1;strokeColor=none;fillColor=none;align=center;verticalAlign=middle;whiteSpace=wrap;rounded=0;" vertex="1" parent="1">
          <mxGeometry x="195" y="370" width="40" height="20" as="geometry" />
        </mxCell>
        <mxCell id="NJGaBBz6_rM-sWw-D0Qb-12" value="" style="edgeStyle=orthogonalEdgeStyle;rounded=0;orthogonalLoop=1;jettySize=auto;html=1;entryX=0.997;entryY=0.4;entryDx=0;entryDy=0;entryPerimeter=0;" edge="1" parent="1" source="QYhbDupaITXDfX72JbQJ-3" target="QYhbDupaITXDfX72JbQJ-6">
          <mxGeometry relative="1" as="geometry" />
        </mxCell>
        <mxCell id="NJGaBBz6_rM-sWw-D0Qb-13" value="" style="edgeStyle=orthogonalEdgeStyle;rounded=0;orthogonalLoop=1;jettySize=auto;html=1;" edge="1" parent="1" source="QYhbDupaITXDfX72JbQJ-12" target="QYhbDupaITXDfX72JbQJ-6">
          <mxGeometry relative="1" as="geometry">
            <Array as="points">
              <mxPoint x="470" y="380" />
              <mxPoint x="470" y="360" />
            </Array>
          </mxGeometry>
        </mxCell>
        <mxCell id="NJGaBBz6_rM-sWw-D0Qb-14" style="edgeStyle=orthogonalEdgeStyle;rounded=0;orthogonalLoop=1;jettySize=auto;html=1;exitX=1;exitY=0.5;exitDx=0;exitDy=0;entryX=1;entryY=0.128;entryDx=0;entryDy=0;entryPerimeter=0;" edge="1" parent="1" source="QYhbDupaITXDfX72JbQJ-12" target="QYhbDupaITXDfX72JbQJ-7">
          <mxGeometry relative="1" as="geometry" />
        </mxCell>
        <mxCell id="NJGaBBz6_rM-sWw-D0Qb-15" style="edgeStyle=orthogonalEdgeStyle;rounded=0;orthogonalLoop=1;jettySize=auto;html=1;exitX=1;exitY=0.5;exitDx=0;exitDy=0;entryX=1.005;entryY=0.064;entryDx=0;entryDy=0;entryPerimeter=0;" edge="1" parent="1" source="QYhbDupaITXDfX72JbQJ-3" target="QYhbDupaITXDfX72JbQJ-7">
          <mxGeometry relative="1" as="geometry">
            <mxPoint x="460" y="510" as="targetPoint" />
            <Array as="points">
              <mxPoint x="710" y="300" />
              <mxPoint x="710" y="503" />
              <mxPoint x="430" y="503" />
              <mxPoint x="430" y="504" />
            </Array>
          </mxGeometry>
        </mxCell>
        <mxCell id="NJGaBBz6_rM-sWw-D0Qb-17" value="Webhooks API" style="edgeLabel;html=1;align=center;verticalAlign=middle;resizable=0;points=[];" vertex="1" connectable="0" parent="NJGaBBz6_rM-sWw-D0Qb-15">
          <mxGeometry x="0.3454" y="-2" relative="1" as="geometry">
            <mxPoint as="offset" />
          </mxGeometry>
        </mxCell>
        <mxCell id="NJGaBBz6_rM-sWw-D0Qb-16" value="&lt;br&gt;&lt;br&gt;&lt;br&gt;&lt;br&gt;&lt;br&gt;&lt;br&gt;&lt;br&gt;&lt;br&gt;&lt;br&gt;&lt;br&gt;&lt;br&gt;&lt;br&gt;&lt;br&gt;&lt;br&gt;&lt;br&gt;&lt;br&gt;&lt;br&gt;&lt;br&gt;&lt;br&gt;&lt;br&gt;&lt;br&gt;&lt;br&gt;&lt;br&gt;&lt;br&gt;&lt;br&gt;&lt;br&gt;&lt;br&gt;&lt;br&gt;&lt;br&gt;&lt;br&gt;&lt;br&gt;&lt;br&gt;&lt;br&gt;&lt;br&gt;&lt;br&gt;3rd party API&lt;br&gt;&lt;span style=&quot;font-weight: normal&quot;&gt;API Gateway&lt;/span&gt;" style="outlineConnect=0;fontColor=#232F3E;gradientColor=none;strokeColor=#ffffff;fillColor=#232F3E;dashed=0;verticalLabelPosition=middle;verticalAlign=bottom;align=center;html=1;whiteSpace=wrap;fontSize=10;fontStyle=1;spacing=3;shape=mxgraph.aws4.productIcon;prIcon=mxgraph.aws4.api_gateway;" vertex="1" parent="1">
          <mxGeometry x="310" y="495" width="80" height="115" as="geometry" />
        </mxCell>
        <mxCell id="NJGaBBz6_rM-sWw-D0Qb-18" value="" style="verticalLabelPosition=bottom;html=1;verticalAlign=top;strokeWidth=1;align=center;outlineConnect=0;dashed=0;outlineConnect=0;shape=mxgraph.aws3d.secureConnection;fillColor=#000000;strokeColor=#ffffff;aspect=fixed;" vertex="1" parent="1">
          <mxGeometry x="733" y="406" width="56.99999999999999" height="34" as="geometry" />
        </mxCell>
        <mxCell id="NJGaBBz6_rM-sWw-D0Qb-21" value="HTTPS&lt;br&gt;API Key Authentication" style="text;html=1;strokeColor=none;fillColor=none;align=center;verticalAlign=middle;whiteSpace=wrap;rounded=0;" vertex="1" parent="1">
          <mxGeometry x="721" y="460" width="81" height="20" as="geometry" />
        </mxCell>
        <mxCell id="NJGaBBz6_rM-sWw-D0Qb-23" value="Patient Information&lt;br&gt;Encrypted &lt;span style=&quot;font-weight: normal&quot;&gt;DynamoDB&lt;/span&gt;" style="outlineConnect=0;fontColor=#232F3E;gradientColor=none;strokeColor=#ffffff;fillColor=#232F3E;dashed=0;verticalLabelPosition=middle;verticalAlign=bottom;align=center;html=1;whiteSpace=wrap;fontSize=10;fontStyle=1;spacing=3;shape=mxgraph.aws4.productIcon;prIcon=mxgraph.aws4.dynamodb;" vertex="1" parent="1">
          <mxGeometry x="70" y="560" width="80" height="130" as="geometry" />
        </mxCell>
        <mxCell id="NJGaBBz6_rM-sWw-D0Qb-24" value="&lt;br&gt;External API Handler&lt;br&gt;&lt;span style=&quot;font-weight: normal&quot;&gt;AWS Lambda&lt;/span&gt;" style="outlineConnect=0;fontColor=#232F3E;gradientColor=none;strokeColor=#ffffff;fillColor=#232F3E;dashed=0;verticalLabelPosition=middle;verticalAlign=bottom;align=center;html=1;whiteSpace=wrap;fontSize=10;fontStyle=1;spacing=3;shape=mxgraph.aws4.productIcon;prIcon=mxgraph.aws4.lambda;" vertex="1" parent="1">
          <mxGeometry x="200" y="495" width="80" height="125" as="geometry" />
        </mxCell>
        <mxCell id="NJGaBBz6_rM-sWw-D0Qb-25" value="Internal API Handler&lt;br&gt;&lt;span style=&quot;font-weight: normal&quot;&gt;AWS Lambda&lt;/span&gt;" style="outlineConnect=0;fontColor=#232F3E;gradientColor=none;strokeColor=#ffffff;fillColor=#232F3E;dashed=0;verticalLabelPosition=middle;verticalAlign=bottom;align=center;html=1;whiteSpace=wrap;fontSize=10;fontStyle=1;spacing=3;shape=mxgraph.aws4.productIcon;prIcon=mxgraph.aws4.lambda;" vertex="1" parent="1">
          <mxGeometry x="80" y="770" width="80" height="120" as="geometry" />
        </mxCell>
        <mxCell id="NJGaBBz6_rM-sWw-D0Qb-26" value="&lt;br&gt;Internal API&lt;br&gt;&lt;span style=&quot;font-weight: normal&quot;&gt;API Gateway&lt;/span&gt;" style="outlineConnect=0;fontColor=#232F3E;gradientColor=none;strokeColor=#ffffff;fillColor=#232F3E;dashed=0;verticalLabelPosition=middle;verticalAlign=bottom;align=center;html=1;whiteSpace=wrap;fontSize=10;fontStyle=1;spacing=3;shape=mxgraph.aws4.productIcon;prIcon=mxgraph.aws4.api_gateway;" vertex="1" parent="1">
          <mxGeometry x="195" y="770" width="80" height="110" as="geometry" />
        </mxCell>
        <mxCell id="NJGaBBz6_rM-sWw-D0Qb-27" value="&lt;br&gt;Business Workflows&lt;br&gt;&lt;span style=&quot;font-weight: normal&quot;&gt;AWS Step Functions&lt;/span&gt;" style="outlineConnect=0;fontColor=#232F3E;gradientColor=none;strokeColor=#ffffff;fillColor=#232F3E;dashed=0;verticalLabelPosition=middle;verticalAlign=bottom;align=center;html=1;whiteSpace=wrap;fontSize=10;fontStyle=1;spacing=3;shape=mxgraph.aws4.productIcon;prIcon=mxgraph.aws4.step_functions;" vertex="1" parent="1">
          <mxGeometry x="195" y="630" width="80" height="130" as="geometry" />
        </mxCell>
        <mxCell id="NJGaBBz6_rM-sWw-D0Qb-28" value="" style="group" vertex="1" connectable="0" parent="1">
          <mxGeometry x="490" y="590" width="160" height="70" as="geometry" />
        </mxCell>
        <mxCell id="NJGaBBz6_rM-sWw-D0Qb-29" value="&lt;b&gt;Twillio&lt;br&gt;&lt;/b&gt;notifications and messaging&lt;br&gt;HIPAA compliant" style="rounded=1;whiteSpace=wrap;html=1;" vertex="1" parent="NJGaBBz6_rM-sWw-D0Qb-28">
          <mxGeometry width="140" height="60" as="geometry" />
        </mxCell>
        <mxCell id="NJGaBBz6_rM-sWw-D0Qb-30" value="" style="shape=image;html=1;verticalAlign=top;verticalLabelPosition=bottom;labelBackgroundColor=#ffffff;imageAspect=0;aspect=fixed;image=https://cdn1.iconfinder.com/data/icons/medicoicons/64/caduceus.png" vertex="1" parent="NJGaBBz6_rM-sWw-D0Qb-28">
          <mxGeometry x="130" y="40" width="30" height="30" as="geometry" />
        </mxCell>
        <mxCell id="NJGaBBz6_rM-sWw-D0Qb-31" value="" style="group" vertex="1" connectable="0" parent="1">
          <mxGeometry x="490" y="685" width="160" height="70" as="geometry" />
        </mxCell>
        <mxCell id="NJGaBBz6_rM-sWw-D0Qb-32" value="&lt;b&gt;PDFFiller&lt;br&gt;&lt;/b&gt;secure document signing&lt;br&gt;HIPAA compliant" style="rounded=1;whiteSpace=wrap;html=1;" vertex="1" parent="NJGaBBz6_rM-sWw-D0Qb-31">
          <mxGeometry width="140" height="60" as="geometry" />
        </mxCell>
        <mxCell id="NJGaBBz6_rM-sWw-D0Qb-33" value="" style="shape=image;html=1;verticalAlign=top;verticalLabelPosition=bottom;labelBackgroundColor=#ffffff;imageAspect=0;aspect=fixed;image=https://cdn1.iconfinder.com/data/icons/medicoicons/64/caduceus.png" vertex="1" parent="NJGaBBz6_rM-sWw-D0Qb-31">
          <mxGeometry x="130" y="40" width="30" height="30" as="geometry" />
        </mxCell>
        <mxCell id="NJGaBBz6_rM-sWw-D0Qb-35" value="Workflows Logic&lt;br&gt;&lt;span style=&quot;font-weight: normal&quot;&gt;Lambda&lt;/span&gt;" style="outlineConnect=0;fontColor=#232F3E;gradientColor=none;strokeColor=#ffffff;fillColor=#232F3E;dashed=0;verticalLabelPosition=middle;verticalAlign=bottom;align=center;html=1;whiteSpace=wrap;fontSize=10;fontStyle=1;spacing=3;shape=mxgraph.aws4.productIcon;prIcon=mxgraph.aws4.lambda;" vertex="1" parent="1">
          <mxGeometry x="310" y="630" width="80" height="125" as="geometry" />
        </mxCell>
        <mxCell id="NJGaBBz6_rM-sWw-D0Qb-36" value="" style="group" vertex="1" connectable="0" parent="1">
          <mxGeometry x="490" y="775" width="160" height="70" as="geometry" />
        </mxCell>
        <mxCell id="NJGaBBz6_rM-sWw-D0Qb-37" value="&lt;b&gt;Stripe&lt;br&gt;&lt;/b&gt;payments&lt;br&gt;HIPAA compliant" style="rounded=1;whiteSpace=wrap;html=1;" vertex="1" parent="NJGaBBz6_rM-sWw-D0Qb-36">
          <mxGeometry width="140" height="60" as="geometry" />
        </mxCell>
        <mxCell id="NJGaBBz6_rM-sWw-D0Qb-38" value="" style="shape=image;html=1;verticalAlign=top;verticalLabelPosition=bottom;labelBackgroundColor=#ffffff;imageAspect=0;aspect=fixed;image=https://cdn1.iconfinder.com/data/icons/medicoicons/64/caduceus.png" vertex="1" parent="NJGaBBz6_rM-sWw-D0Qb-36">
          <mxGeometry x="130" y="40" width="30" height="30" as="geometry" />
        </mxCell>
        <mxCell id="NJGaBBz6_rM-sWw-D0Qb-39" value="" style="endArrow=classic;html=1;" edge="1" parent="1">
          <mxGeometry width="50" height="50" relative="1" as="geometry">
            <mxPoint x="390" y="690" as="sourcePoint" />
            <mxPoint x="480" y="690" as="targetPoint" />
          </mxGeometry>
        </mxCell>
        <mxCell id="NJGaBBz6_rM-sWw-D0Qb-40" value="" style="points=[[0,0,0],[0.25,0,0],[0.5,0,0],[0.75,0,0],[1,0,0],[0,1,0],[0.25,1,0],[0.5,1,0],[0.75,1,0],[1,1,0],[0,0.25,0],[0,0.5,0],[0,0.75,0],[1,0.25,0],[1,0.5,0],[1,0.75,0]];outlineConnect=0;fontColor=#232F3E;gradientColor=#F54749;gradientDirection=north;fillColor=#C7131F;strokeColor=#ffffff;dashed=0;verticalLabelPosition=bottom;verticalAlign=top;align=center;html=1;fontSize=12;fontStyle=0;aspect=fixed;shape=mxgraph.aws4.resourceIcon;resIcon=mxgraph.aws4.amplify;" vertex="1" parent="1">
          <mxGeometry x="-110" y="755" width="78" height="78" as="geometry" />
        </mxCell>
        <mxCell id="NJGaBBz6_rM-sWw-D0Qb-41" value="AWS Amplify" style="text;html=1;strokeColor=none;fillColor=none;align=center;verticalAlign=middle;whiteSpace=wrap;rounded=0;" vertex="1" parent="1">
          <mxGeometry x="-110" y="848" width="80" height="20" as="geometry" />
        </mxCell>
        <mxCell id="NJGaBBz6_rM-sWw-D0Qb-42" value="" style="shape=image;html=1;verticalAlign=top;verticalLabelPosition=bottom;labelBackgroundColor=#ffffff;imageAspect=0;aspect=fixed;image=https://cdn4.iconfinder.com/data/icons/logos-brands-5/24/vue-dot-js-128.png" vertex="1" parent="1">
          <mxGeometry x="106" y="980" width="94" height="94" as="geometry" />
        </mxCell>
        <mxCell id="NJGaBBz6_rM-sWw-D0Qb-43" value="Vue.JS" style="text;html=1;strokeColor=none;fillColor=none;align=center;verticalAlign=middle;whiteSpace=wrap;rounded=0;" vertex="1" parent="1">
          <mxGeometry x="133" y="1074" width="40" height="20" as="geometry" />
        </mxCell>
        <mxCell id="NJGaBBz6_rM-sWw-D0Qb-44" value="" style="aspect=fixed;html=1;points=[];align=center;image;fontSize=12;image=img/lib/azure2/intune/Device_Security_Google.svg;" vertex="1" parent="1">
          <mxGeometry x="290" y="970" width="68" height="69" as="geometry" />
        </mxCell>
        <mxCell id="NJGaBBz6_rM-sWw-D0Qb-45" value="Google Authentication" style="text;html=1;strokeColor=none;fillColor=none;align=center;verticalAlign=middle;whiteSpace=wrap;rounded=0;" vertex="1" parent="1">
          <mxGeometry x="303" y="1048" width="40" height="20" as="geometry" />
        </mxCell>
        <mxCell id="NJGaBBz6_rM-sWw-D0Qb-48" value="" style="group" vertex="1" connectable="0" parent="1">
          <mxGeometry x="660" y="590" width="160" height="70" as="geometry" />
        </mxCell>
        <mxCell id="NJGaBBz6_rM-sWw-D0Qb-49" value="&lt;b&gt;Fedex&lt;br&gt;&lt;/b&gt;shipping order creation and tracking&lt;br&gt;HIPAA compliant" style="rounded=1;whiteSpace=wrap;html=1;" vertex="1" parent="NJGaBBz6_rM-sWw-D0Qb-48">
          <mxGeometry width="140" height="60" as="geometry" />
        </mxCell>
        <mxCell id="NJGaBBz6_rM-sWw-D0Qb-50" value="" style="shape=image;html=1;verticalAlign=top;verticalLabelPosition=bottom;labelBackgroundColor=#ffffff;imageAspect=0;aspect=fixed;image=https://cdn1.iconfinder.com/data/icons/medicoicons/64/caduceus.png" vertex="1" parent="NJGaBBz6_rM-sWw-D0Qb-48">
          <mxGeometry x="130" y="40" width="30" height="30" as="geometry" />
        </mxCell>
        <mxCell id="NJGaBBz6_rM-sWw-D0Qb-51" value="" style="group" vertex="1" connectable="0" parent="1">
          <mxGeometry x="660" y="685" width="160" height="70" as="geometry" />
        </mxCell>
        <mxCell id="NJGaBBz6_rM-sWw-D0Qb-52" value="&lt;b&gt;FaxPlus&lt;br&gt;&lt;/b&gt;faxing pharmacy orders&lt;br&gt;HIPAA compliant" style="rounded=1;whiteSpace=wrap;html=1;" vertex="1" parent="NJGaBBz6_rM-sWw-D0Qb-51">
          <mxGeometry width="140" height="60" as="geometry" />
        </mxCell>
        <mxCell id="NJGaBBz6_rM-sWw-D0Qb-53" value="" style="shape=image;html=1;verticalAlign=top;verticalLabelPosition=bottom;labelBackgroundColor=#ffffff;imageAspect=0;aspect=fixed;image=https://cdn1.iconfinder.com/data/icons/medicoicons/64/caduceus.png" vertex="1" parent="NJGaBBz6_rM-sWw-D0Qb-51">
          <mxGeometry x="130" y="40" width="30" height="30" as="geometry" />
        </mxCell>
        <mxCell id="NJGaBBz6_rM-sWw-D0Qb-54" value="" style="group" vertex="1" connectable="0" parent="1">
          <mxGeometry x="660" y="775" width="160" height="70" as="geometry" />
        </mxCell>
        <mxCell id="NJGaBBz6_rM-sWw-D0Qb-55" value="&lt;b&gt;PayPal&lt;br&gt;&lt;/b&gt;payments&lt;br&gt;HIPAA compliant" style="rounded=1;whiteSpace=wrap;html=1;" vertex="1" parent="NJGaBBz6_rM-sWw-D0Qb-54">
          <mxGeometry width="140" height="60" as="geometry" />
        </mxCell>
        <mxCell id="NJGaBBz6_rM-sWw-D0Qb-56" value="" style="shape=image;html=1;verticalAlign=top;verticalLabelPosition=bottom;labelBackgroundColor=#ffffff;imageAspect=0;aspect=fixed;image=https://cdn1.iconfinder.com/data/icons/medicoicons/64/caduceus.png" vertex="1" parent="NJGaBBz6_rM-sWw-D0Qb-54">
          <mxGeometry x="130" y="40" width="30" height="30" as="geometry" />
        </mxCell>
        <mxCell id="NJGaBBz6_rM-sWw-D0Qb-59" value="" style="verticalLabelPosition=bottom;html=1;verticalAlign=top;strokeWidth=1;align=center;outlineConnect=0;dashed=0;outlineConnect=0;shape=mxgraph.aws3d.secureConnection;fillColor=#000000;strokeColor=#ffffff;aspect=fixed;" vertex="1" parent="1">
          <mxGeometry x="425" y="706.5" width="45.26" height="27" as="geometry" />
        </mxCell>
        <mxCell id="NJGaBBz6_rM-sWw-D0Qb-60" value="" style="verticalLabelPosition=bottom;html=1;verticalAlign=top;strokeWidth=1;align=center;outlineConnect=0;dashed=0;outlineConnect=0;shape=mxgraph.aws3d.secureConnection;fillColor=#000000;strokeColor=#ffffff;aspect=fixed;" vertex="1" parent="1">
          <mxGeometry x="240" y="910" width="45.26" height="27" as="geometry" />
        </mxCell>
        <mxCell id="NJGaBBz6_rM-sWw-D0Qb-62" value="" style="endArrow=none;dashed=1;html=1;" edge="1" parent="1">
          <mxGeometry width="50" height="50" relative="1" as="geometry">
            <mxPoint x="110" y="830" as="sourcePoint" />
            <mxPoint x="160" y="780" as="targetPoint" />
          </mxGeometry>
        </mxCell>
        <mxCell id="NJGaBBz6_rM-sWw-D0Qb-64" value="" style="shape=curlyBracket;whiteSpace=wrap;html=1;rounded=1;shadow=1;" vertex="1" parent="1">
          <mxGeometry x="-10" y="460" width="20" height="670" as="geometry" />
        </mxCell>
        <mxCell id="NJGaBBz6_rM-sWw-D0Qb-65" value="" style="shape=image;html=1;verticalAlign=top;verticalLabelPosition=bottom;labelBackgroundColor=#ffffff;imageAspect=0;aspect=fixed;image=https://cdn2.iconfinder.com/data/icons/social-icons-circular-color/512/github-128.png;shadow=1;" vertex="1" parent="1">
          <mxGeometry x="-106" y="888.5" width="70" height="70" as="geometry" />
        </mxCell>
        <mxCell id="NJGaBBz6_rM-sWw-D0Qb-66" value="" style="shape=image;html=1;verticalAlign=top;verticalLabelPosition=bottom;labelBackgroundColor=#ffffff;imageAspect=0;aspect=fixed;image=https://cdn2.iconfinder.com/data/icons/social-icons-circular-color/512/github-128.png;shadow=1;" vertex="1" parent="1">
          <mxGeometry x="-100" y="305" width="70" height="70" as="geometry" />
        </mxCell>
        <mxCell id="NJGaBBz6_rM-sWw-D0Qb-67" value="" style="shape=curlyBracket;whiteSpace=wrap;html=1;rounded=1;shadow=1;size=0.5;" vertex="1" parent="1">
          <mxGeometry x="-10" y="230" width="20" height="210" as="geometry" />
        </mxCell>
        <mxCell id="NJGaBBz6_rM-sWw-D0Qb-69" value="" style="edgeStyle=orthogonalEdgeStyle;rounded=0;orthogonalLoop=1;jettySize=auto;html=1;" edge="1" parent="1" source="NJGaBBz6_rM-sWw-D0Qb-68" target="QYhbDupaITXDfX72JbQJ-8">
          <mxGeometry relative="1" as="geometry" />
        </mxCell>
        <mxCell id="NJGaBBz6_rM-sWw-D0Qb-68" value="" style="aspect=fixed;perimeter=ellipsePerimeter;html=1;align=center;shadow=0;dashed=0;spacingTop=3;image;image=img/lib/active_directory/users.svg;" vertex="1" parent="1">
          <mxGeometry x="574.76" y="970" width="75.24" height="114" as="geometry" />
        </mxCell>
        <mxCell id="NJGaBBz6_rM-sWw-D0Qb-70" value="Medical Staff" style="text;html=1;strokeColor=none;fillColor=none;align=center;verticalAlign=middle;whiteSpace=wrap;rounded=0;shadow=1;" vertex="1" parent="1">
          <mxGeometry x="590" y="1084" width="40" height="20" as="geometry" />
        </mxCell>
      </root>
    </mxGraphModel>
  </diagram>
</mxfile>
